<?xml version="1.0" standalone="no"?><!DOCTYPE svg PUBLIC "-//W3C//DTD SVG 1.1//EN" "http://www.w3.org/Graphics/SVG/1.1/DTD/svg11.dtd"><svg t="1509011470811" class="icon" style="" viewBox="0 0 1024 1024" version="1.1" xmlns="http://www.w3.org/2000/svg" p-id="5174" xmlns:xlink="http://www.w3.org/1999/xlink" width="200" height="200"><defs><style type="text/css"></style></defs><path d="M511.354 63.357C265.37 61.837 63.291 262.124 61.466 509.261c-1.824 246.808 197.77 450.095 443.79 452.002 248.976 1.93 452.281-197.097 454.067-444.514C961.127 266.8 761.646 64.904 511.354 63.357z m-1.406 814.768c-200.214 0.558-364.842-163.837-365.38-364.863-0.54-201.592 163.408-366.4 364.862-366.774 201.759-0.375 366.454 163.47 366.766 364.872 0.314 202.438-163.215 366.198-366.248 366.765z" fill="#707070" p-id="5175"></path><path d="M684.951 416.086c23.03-23.29 23.817-57.546 2.382-79.525-21.958-22.515-56.661-22.357-80.504 0.98-26.062 25.508-51.718 51.432-77.383 77.342-6.077 6.136-11.482 12.938-17.591 19.883-5.967-5.711-9.643-9.105-13.183-12.638-28.75-28.7-57.148-57.764-86.314-86.034-22.685-21.988-56.999-21.49-78.472 0.035-21.357 21.41-21.427 55.782 0.52 78.503 20.202 20.916 40.917 41.343 61.666 61.721 11.775 11.565 24.07 22.599 36.624 34.333-5.128 5.509-8.108 8.908-11.294 12.1-28.046 28.1-56.658 55.665-83.877 84.542-8.154 8.651-15.131 20.269-17.972 31.69-6.103 24.53 6.072 47.817 27.73 59.319 21.212 11.265 47.033 7.856 65.14-9.838 29.382-28.713 58.194-58.01 87.282-87.026 3.447-3.44 7.107-6.665 11.211-10.496 32.377 32.483 63.51 63.994 94.962 95.187 24.013 23.815 57.98 24.805 80.504 2.831 22.728-22.174 21.819-57.036-2.423-81.495-28.271-28.526-56.774-56.822-85.137-85.258-3.141-3.15-6.02-6.56-9.595-10.477 32.471-32.423 64.277-63.874 95.724-95.68z" fill="#707070" p-id="5176"></path></svg>