<?xml version="1.0" standalone="no"?><!DOCTYPE svg PUBLIC "-//W3C//DTD SVG 1.1//EN" "http://www.w3.org/Graphics/SVG/1.1/DTD/svg11.dtd"><svg t="1509005330742" class="icon" style="" viewBox="0 0 1024 1024" version="1.1" xmlns="http://www.w3.org/2000/svg" p-id="1058" xmlns:xlink="http://www.w3.org/1999/xlink" width="200" height="200"><defs><style type="text/css"></style></defs><path d="M1009.802378 503.918703c0 277.504-226.387027 503.918703-503.918702 503.918702C228.379676 1015.143784 1.964973 781.450378 1.964973 503.918703c0-211.801946 131.459459-401.684757 321.34227-474.693189C381.730595 7.306378 440.153946 0 505.911351 0s124.153081 14.612757 182.576433 36.531892c189.882811 73.008432 321.34227 255.584865 321.34227 467.386811zM308.722162 394.378378c0 87.621189 43.810595 160.657297 109.540324 197.18919 29.197838 14.585081 58.395676 29.197838 87.62119 29.197837s58.423351-7.306378 87.648865-21.919135c65.72973-36.504216 109.540324-109.540324 109.540324-197.161513 0-124.153081-87.621189-219.108324-197.189189-219.108325-109.540324-7.306378-197.161514 94.927568-197.161514 211.801946z m197.161514 584.233514c146.072216 0 277.531676-65.72973 365.18054-175.270054-7.306378-87.621189-94.955243-153.350919-211.801946-189.855135-36.531892 36.504216-94.927568 65.702054-153.378594 65.702054-65.72973 0-116.846703-21.919135-160.657298-65.72973-109.540324 29.225514-197.189189 94.927568-211.801946 175.270054 80.342486 116.846703 219.108324 189.882811 372.459244 189.882811z" p-id="1059"></path></svg>